<svg width="181" height="180" viewBox="0 0 181 180" fill="none" xmlns="http://www.w3.org/2000/svg">
<rect x="0.0444336" width="180" height="180" rx="90" fill="#C0B3F9"/>
<path d="M103.325 128L113.997 96.4986L144.822 128" fill="black"/>
<path d="M101.462 127.83H41.8435C37.1008 127.83 34.223 123.935 35.238 119.023L47.7729 59.407C48.788 54.8338 53.1916 51.1062 57.7648 51.1062H117.383C121.956 51.1062 125.006 54.8338 124.158 59.407L111.795 119.023C110.778 123.935 106.205 127.83 101.462 127.83Z" fill="white"/>
<path d="M102.14 110.385C101.97 110.216 101.97 110.385 102.14 110.385L87.9119 92.6013C90.6224 89.3845 92.146 85.32 92.146 81.0859C92.146 71.2614 84.1865 63.1323 74.1947 63.1323C64.3702 63.1323 56.2411 71.0919 56.2411 81.0859C56.2411 85.8286 58.1038 90.3995 61.4902 93.7881C64.8788 97.1745 69.2824 99.0394 74.1947 99.0394C77.0724 99.0394 79.9524 98.3613 82.4933 97.005L96.7192 114.619C97.3973 115.467 98.4146 115.806 99.2601 115.806C100.108 115.806 100.953 115.467 101.462 114.959C102.988 113.774 103.155 111.911 102.14 110.385ZM85.0342 81.0859C85.0342 87.0132 80.1219 91.9254 74.1947 91.9254C68.2652 91.9254 63.3551 87.0132 63.3551 81.0859C63.3551 75.1564 68.2652 70.2464 74.1947 70.2464C80.1219 70.2464 85.0342 75.1564 85.0342 81.0859Z" fill="#FFAB48"/>
</svg>
